ffmpeg version 3.2.10-1~deb9u1+rpt1 Copyright (c) 2000-2018 the FFmpeg developers
  built with gcc 6.3.0 (Raspbian 6.3.0-18+rpi1) 20170516
  configuration: --prefix=/usr --extra-version='1~deb9u1+rpt1' --toolchain=hardened --libdir=/usr/lib/arm-linux-gnueabihf --incdir=/usr/include/arm-linux-gnueabihf --enable-gpl --disable-stripping --enable-avresample --enable-avisynth --enable-gnutls --enable-ladspa --enable-libass --enable-libbluray --enable-libbs2b --enable-libcaca --enable-libcdio --enable-libebur128 --enable-libflite --enable-libfontconfig --enable-libfreetype --enable-libfribidi --enable-libgme --enable-libgsm --enable-libmp3lame --enable-libopenjpeg --enable-libopenmpt --enable-libopus --enable-libpulse --enable-librubberband --enable-libshine --enable-libsnappy --enable-libsoxr --enable-libspeex --enable-libssh --enable-libtheora --enable-libtwolame --enable-libvorbis --enable-libvpx --enable-libwavpack --enable-libwebp --enable-libx265 --enable-libxvid --enable-libzmq --enable-libzvbi --enable-omx-rpi --enable-mmal --enable-openal --enable-opengl --enable-sdl2 --enable-libdc1394 --enable-libiec61883 --enable-chromaprint --enable-frei0r --enable-libopencv --enable-libx264 --enable-shared
  libavutil      55. 34.101 / 55. 34.101
  libavcodec     57. 64.101 / 57. 64.101
  libavformat    57. 56.101 / 57. 56.101
  libavdevice    57.  1.100 / 57.  1.100
  libavfilter     6. 65.100 /  6. 65.100
  libavresample   3.  1.  0 /  3.  1.  0
  libswscale      4.  2.100 /  4.  2.100
  libswresample   2.  3.100 /  2.  3.100
  libpostproc    54.  1.100 / 54.  1.100
Guessed Channel Layout for Input Stream #0.0 : stereo
Input #0, alsa, from 'plughw:CARD=Device':
  Duration: N/A, start: 1538185948.853361, bitrate: 1536 kb/s
    Stream #0:0: Audio: pcm_s16le, 48000 Hz, stereo, s16, 1536 kb/s
Output #0, ffm, to 'http://192.168.1.73:8090/feed1.ffm':
  Metadata:
    creation_time   : now
    encoder         : Lavf57.56.101
    Stream #0:0: Audio: mp3 (libmp3lame), 44100 Hz, mono, s16p, 128 kb/s
    Metadata:
      encoder         : Lavc57.64.101 libmp3lame
Stream mapping:
  Stream #0:0 -> #0:0 (pcm_s16le (native) -> mp3 (libmp3lame))
Press [q] to stop, [?] for help
size=       8kB time=00:00:00.44 bitrate= 147.1kbits/s speed=0.882x    size=      16kB time=00:00:00.94 bitrate= 139.2kbits/s speed=0.929x    size=      28kB time=00:00:01.46 bitrate= 156.6kbits/s speed=0.967x    size=      36kB time=00:00:01.96 bitrate= 150.4kbits/s speed=0.969x    size=      44kB time=00:00:02.48 bitrate= 145.2kbits/s speed=0.983x    size=      52kB time=00:00:02.97 bitrate= 143.0kbits/s speed=0.984x    size=      60kB time=00:00:03.47 bitrate= 141.4kbits/s speed=0.985x    size=      68kB time=00:00:03.97 bitrate= 140.2kbits/s speed=0.984x    size=      76kB time=00:00:04.49 bitrate= 138.5kbits/s speed=0.99x    size=      84kB time=00:00:04.99 bitrate= 137.9kbits/s speed=0.99x    size=      92kB time=00:00:05.48 bitrate= 137.3kbits/s speed=0.989x    size=     100kB time=00:00:05.98 bitrate= 136.9kbits/s speed=0.988x    size=     108kB time=00:00:06.50 bitrate= 136.0kbits/s speed=0.993x    size=     116kB time=00:00:07.00 bitrate= 135.7kbits/s speed=0.993x    size=     124kB time=00:00:07.49 bitrate= 135.5kbits/s speed=0.991x    size=     132kB time=00:00:08.02 bitrate= 134.8kbits/s speed=0.995x    size=     140kB time=00:00:08.51 bitrate= 134.6kbits/s speed=0.994x    size=     148kB time=00:00:09.01 bitrate= 134.5kbits/s speed=0.993x    size=     156kB time=00:00:09.51 bitrate= 134.4kbits/s speed=0.993x    size=     164kB time=00:00:10.03 bitrate= 133.9kbits/s speed=0.995x    size=     172kB time=00:00:10.52 bitrate= 133.8kbits/s speed=0.995x    size=     180kB time=00:00:11.02 bitrate= 133.7kbits/s speed=0.994x    size=     188kB time=00:00:11.52 bitrate= 133.7kbits/s speed=0.994x    size=     200kB time=00:00:12.04 bitrate= 136.0kbits/s speed=0.995x    size=     208kB time=00:00:12.54 bitrate= 135.9kbits/s speed=0.995x    size=     216kB time=00:00:13.06 bitrate= 135.5kbits/s speed=0.996x    size=     224kB time=00:00:13.55 bitrate= 135.3kbits/s speed=0.996x    size=     232kB time=00:00:14.05 bitrate= 135.2kbits/s speed=0.996x    size=     240kB time=00:00:14.55 bitrate= 135.1kbits/s speed=0.995x    size=     248kB time=00:00:15.07 bitrate= 134.8kbits/s speed=0.996x    size=     256kB time=00:00:15.57 bitrate= 134.7kbits/s speed=0.996x    size=     264kB time=00:00:16.06 bitrate= 134.6kbits/s speed=0.996x    size=     272kB time=00:00:16.58 bitrate= 134.3kbits/s speed=0.997x    size=     280kB time=00:00:17.08 bitrate= 134.2kbits/s speed=0.996x    size=     288kB time=00:00:17.58 bitrate= 134.2kbits/s speed=0.996x    size=     296kB time=00:00:18.10 bitrate= 133.9kbits/s speed=0.997x    size=     304kB time=00:00:18.60 bitrate= 133.9kbits/s speed=0.997x    size=     312kB time=00:00:19.09 bitrate= 133.8kbits/s speed=0.996x    size=     320kB time=00:00:19.61 bitrate= 133.6kbits/s speed=0.998x    size=     328kB time=00:00:20.11 bitrate= 133.6kbits/s speed=0.997x    size=     336kB time=00:00:20.61 bitrate= 133.5kbits/s speed=0.997x    size=     348kB time=00:00:21.10 bitrate= 135.1kbits/s speed=0.997x    size=     356kB time=00:00:21.63 bitrate= 134.8kbits/s speed=0.998x    size=     364kB time=00:00:22.12 bitrate= 134.8kbits/s speed=0.997x    size=     372kB time=00:00:22.65 bitrate= 134.5kbits/s speed=0.998x    size=     380kB time=00:00:23.14 bitrate= 134.5kbits/s speed=0.998x    size=     388kB time=00:00:23.64 bitrate= 134.4kbits/s speed=0.998x    size=     396kB time=00:00:24.13 bitrate= 134.4kbits/s speed=0.997x    size=     404kB time=00:00:24.66 bitrate= 134.2kbits/s speed=0.998x    size=     412kB time=00:00:25.15 bitrate= 134.2kbits/s speed=0.998x    size=     420kB time=00:00:25.65 bitrate= 134.1kbits/s speed=0.998x    size=     428kB time=00:00:26.17 bitrate= 133.9kbits/s speed=0.998x    size=     436kB time=00:00:26.67 bitrate= 133.9kbits/s speed=0.998x    size=     444kB time=00:00:27.16 bitrate= 133.9kbits/s speed=0.998x    size=     452kB time=00:00:27.66 bitrate= 133.8kbits/s speed=0.998x    size=     460kB time=00:00:28.16 bitrate= 133.8kbits/s speed=0.997x    size=     468kB time=00:00:28.68 bitrate= 133.7kbits/s speed=0.998x    size=     476kB time=00:00:29.18 bitrate= 133.6kbits/s speed=0.998x    size=     484kB time=00:00:29.70 bitrate= 133.5kbits/s speed=0.999x    size=     496kB time=00:00:30.19 bitrate= 134.5kbits/s speed=0.998x    size=     504kB time=00:00:30.69 bitrate= 134.5kbits/s speed=0.998x    size=     512kB time=00:00:31.19 bitrate= 134.5kbits/s speed=0.998x    size=     520kB time=00:00:31.68 bitrate= 134.4kbits/s speed=0.998x    size=     528kB time=00:00:32.21 bitrate= 134.3kbits/s speed=0.999x    size=     536kB time=00:00:32.70 bitrate= 134.2kbits/s speed=0.998x    size=     544kB time=00:00:33.20 bitrate= 134.2kbits/s speed=0.998x    size=     552kB time=00:00:33.70 bitrate= 134.2kbits/s speed=0.998x    size=     560kB time=00:00:34.22 bitrate= 134.0kbits/s speed=0.999x    size=     568kB time=00:00:34.71 bitrate= 134.0kbits/s speed=0.998x    size=     576kB time=00:00:35.21 bitrate= 134.0kbits/s speed=0.998x    size=     584kB time=00:00:35.73 bitrate= 133.9kbits/s speed=0.999x    size=     592kB time=00:00:36.23 bitrate= 133.8kbits/s speed=0.999x    size=     600kB time=00:00:36.73 bitrate= 133.8kbits/s speed=0.999x    size=     608kB time=00:00:37.22 bitrate= 133.8kbits/s speed=0.998x    size=     616kB time=00:00:37.72 bitrate= 133.8kbits/s speed=0.998x    size=     624kB time=00:00:38.24 bitrate= 133.7kbits/s speed=0.999x    size=     632kB time=00:00:38.74 bitrate= 133.6kbits/s speed=0.998x    size=     640kB time=00:00:39.23 bitrate= 133.6kbits/s speed=0.998x    size=     648kB time=00:00:39.76 bitrate= 133.5kbits/s speed=0.999x    size=     656kB time=00:00:40.25 bitrate= 133.5kbits/s speed=0.998x    size=     668kB time=00:00:40.77 bitrate= 134.2kbits/s speed=0.999x    size=     676kB time=00:00:41.27 bitrate= 134.2kbits/s speed=0.999x    size=     684kB time=00:00:41.77 bitrate= 134.1kbits/s speed=0.999x    size=     692kB time=00:00:42.26 bitrate= 134.1kbits/s speed=0.998x    size=     700kB time=00:00:42.79 bitrate= 134.0kbits/s speed=0.999x    size=     708kB time=00:00:43.28 bitrate= 134.0kbits/s speed=0.999x    size=     716kB time=00:00:43.78 bitrate= 134.0kbits/s speed=0.998x    size=     724kB time=00:00:44.28 bitrate= 133.9kbits/s speed=0.998x    size=     732kB time=00:00:44.80 bitrate= 133.8kbits/s speed=0.999x    size=     740kB time=00:00:45.29 bitrate= 133.8kbits/s speed=0.999x    size=     748kB time=00:00:45.82 bitrate= 133.7kbits/s speed=0.999x    size=     756kB time=00:00:46.31 bitrate= 133.7kbits/s speed=0.999x    size=     764kB time=00:00:46.81 bitrate= 133.7kbits/s speed=0.999x    size=     772kB time=00:00:47.33 bitrate= 133.6kbits/s speed=0.999x    size=     780kB time=00:00:47.83 bitrate= 133.6kbits/s speed=0.999x    size=     788kB time=00:00:48.32 bitrate= 133.6kbits/s speed=0.999x    size=     796kB time=00:00:48.82 bitrate= 133.6kbits/s speed=0.999x    size=     804kB time=00:00:49.34 bitrate= 133.5kbits/s speed=0.999x    size=     812kB time=00:00:49.84 bitrate= 133.5kbits/s speed=0.999x    size=     820kB time=00:00:50.34 bitrate= 133.4kbits/s speed=0.999x    size=     832kB time=00:00:50.86 bitrate= 134.0kbits/s speed=0.999x    size=     840kB time=00:00:51.35 bitrate= 134.0kbits/s speed=0.999x    size=     848kB time=00:00:51.85 bitrate= 134.0kbits/s speed=0.999x    size=     856kB time=00:00:52.35 bitrate= 133.9kbits/s speed=0.999x    size=     864kB time=00:00:52.87 bitrate= 133.9kbits/s speed=0.999x    size=     872kB time=00:00:53.37 bitrate= 133.8kbits/s speed=0.999x    size=     880kB time=00:00:53.86 bitrate= 133.8kbits/s speed=0.999x    size=     888kB time=00:00:54.38 bitrate= 133.7kbits/s speed=0.999x    size=     896kB time=00:00:54.88 bitrate= 133.7kbits/s speed=0.999x    size=     904kB time=00:00:55.38 bitrate= 133.7kbits/s speed=0.999x    size=     912kB time=00:00:55.87 bitrate= 133.7kbits/s speed=0.999x    size=     920kB time=00:00:56.37 bitrate= 133.7kbits/s speed=0.999x    size=     928kB time=00:00:56.89 bitrate= 133.6kbits/s speed=0.999x    size=     936kB time=00:00:57.39 bitrate= 133.6kbits/s speed=0.999x    size=     944kB time=00:00:57.91 bitrate= 133.5kbits/s speed=0.999x    size=     952kB time=00:00:58.41 bitrate= 133.5kbits/s speed=0.999x    size=     960kB time=00:00:58.93 bitrate= 133.4kbits/s speed=0.999x    size=     968kB time=00:00:59.43 bitrate= 133.4kbits/s speed=0.999x    size=     976kB time=00:00:59.92 bitrate= 133.4kbits/s speed=0.999x    size=     988kB time=00:01:00.45 bitrate= 133.9kbits/s speed=0.999x    size=     996kB time=00:01:00.94 bitrate= 133.9kbits/s speed=0.999x    size=    1004kB time=00:01:01.44 bitrate= 133.9kbits/s speed=0.999x    size=    1012kB time=00:01:01.96 bitrate= 133.8kbits/s speed=0.999x    size=    1020kB time=00:01:02.46 bitrate= 133.8kbits/s speed=0.999x    size=    1028kB time=00:01:02.95 bitrate= 133.8kbits/s speed=0.999x    size=    1036kB time=00:01:03.48 bitrate= 133.7kbits/s speed=0.999x    size=    1044kB time=00:01:03.97 bitrate= 133.7kbits/s speed=0.999x    size=    1052kB time=00:01:04.47 bitrate= 133.7kbits/s speed=0.999x    size=    1060kB time=00:01:04.96 bitrate= 133.7kbits/s speed=0.999x    size=    1068kB time=00:01:05.49 bitrate= 133.6kbits/s speed=0.999x    size=    1076kB time=00:01:05.98 bitrate= 133.6kbits/s speed=0.999x    size=    1084kB time=00:01:06.48 bitrate= 133.6kbits/s speed=0.999x    size=    1092kB time=00:01:06.98 bitrate= 133.6kbits/s speed=0.999x    size=    1100kB time=00:01:07.50 bitrate= 133.5kbits/s speed=0.999x    size=    1108kB time=00:01:07.99 bitrate= 133.5kbits/s speed=0.999x    size=    1116kB time=00:01:08.49 bitrate= 133.5kbits/s speed=0.999x    size=    1124kB time=00:01:09.01 bitrate= 133.4kbits/s speed=0.999x    size=    1132kB time=00:01:09.51 bitrate= 133.4kbits/s speed=0.999x    size=    1144kB time=00:01:10.01 bitrate= 133.9kbits/s speed=0.999x    size=    1152kB time=00:01:10.53 bitrate= 133.8kbits/s speed=0.999x    size=    1160kB time=00:01:11.03 bitrate= 133.8kbits/s speed=0.999x    size=    1168kB time=00:01:11.52 bitrate= 133.8kbits/s speed=0.999x    size=    1176kB time=00:01:12.02 bitrate= 133.8kbits/s speed=0.999x    size=    1184kB time=00:01:12.54 bitrate= 133.7kbits/s speed=0.999x    size=    1192kB time=00:01:13.04 bitrate= 133.7kbits/s speed=0.999x    size=    1200kB time=00:01:13.53 bitrate= 133.7kbits/s speed=0.999x    size=    1208kB time=00:01:14.03 bitrate= 133.7kbits/s speed=0.999x    size=    1216kB time=00:01:14.55 bitrate= 133.6kbits/s speed=0.999x    size=    1224kB time=00:01:15.05 bitrate= 133.6kbits/s speed=0.999x    size=    1232kB time=00:01:15.54 bitrate= 133.6kbits/s speed=0.999x    size=    1240kB time=00:01:16.04 bitrate= 133.6kbits/s speed=0.999x    size=    1248kB time=00:01:16.56 bitrate= 133.5kbits/s speed=0.999x    size=    1256kB time=00:01:17.06 bitrate= 133.5kbits/s speed=0.999x    size=    1264kB time=00:01:17.56 bitrate= 133.5kbits/s speed=0.999x    size=    1272kB time=00:01:18.05 bitrate= 133.5kbits/s speed=0.999x    size=    1280kB time=00:01:18.57 bitrate= 133.4kbits/s speed=0.999x    size=    1288kB time=00:01:19.07 bitrate= 133.4kbits/s speed=0.999x    size=    1300kB time=00:01:19.59 bitrate= 133.8kbits/s speed=0.999x    size=    1308kB time=00:01:20.09 bitrate= 133.8kbits/s speed=0.999x    size=    1316kB time=00:01:20.61 bitrate= 133.7kbits/s speed=0.999x    size=    1324kB time=00:01:21.11 bitrate= 133.7kbits/s speed=0.999x    size=    1332kB time=00:01:21.61 bitrate= 133.7kbits/s speed=0.999x    size=    1340kB time=00:01:22.10 bitrate= 133.7kbits/s speed=0.999x    size=    1348kB time=00:01:22.62 bitrate= 133.6kbits/s speed=0.999x    size=    1356kB time=00:01:23.12 bitrate= 133.6kbits/s speed=0.999x    size=    1364kB time=00:01:23.62 bitrate= 133.6kbits/s speed=0.999x    size=    1372kB time=00:01:24.14 bitrate= 133.6kbits/s speed=0.999x    size=    1380kB time=00:01:24.64 bitrate= 133.6kbits/s speed=0.999x    size=    1388kB time=00:01:25.13 bitrate= 133.6kbits/s speed=0.999x    size=    1396kB time=00:01:25.63 bitrate= 133.5kbits/s speed=0.999x    size=    1404kB time=00:01:26.15 bitrate= 133.5kbits/s speed=0.999x    size=    1412kB time=00:01:26.65 bitrate= 133.5kbits/s speed=0.999x    size=    1420kB time=00:01:27.17 bitrate= 133.4kbits/s speed=0.999x    size=    1428kB time=00:01:27.67 bitrate= 133.4kbits/s speed=0.999x    size=    1436kB time=00:01:28.16 bitrate= 133.4kbits/s speed=0.999x    size=    1444kB time=00:01:28.66 bitrate= 133.4kbits/s speed=0.999x    size=    1452kB time=00:01:29.15 bitrate= 133.4kbits/s speed=0.999x    size=    1464kB time=00:01:29.68 bitrate= 133.7kbits/s speed=0.999x    size=    1472kB time=00:01:30.17 bitrate= 133.7kbits/s speed=0.999x    size=    1480kB time=00:01:30.67 bitrate= 133.7kbits/s speed=0.999x    size=    1488kB time=00:01:31.17 bitrate= 133.7kbits/s speed=0.999x    size=    1496kB time=00:01:31.69 bitrate= 133.7kbits/s speed=0.999x    size=    1504kB time=00:01:32.19 bitrate= 133.6kbits/s speed=0.999x    size=    1512kB time=00:01:32.68 bitrate= 133.6kbits/s speed=0.999x    size=    1520kB time=00:01:33.18 bitrate= 133.6kbits/s speed=0.999x    size=    1528kB time=00:01:33.67 bitrate= 133.6kbits/s speed=0.999x    size=    1536kB time=00:01:34.20 bitrate= 133.6kbits/s speed=0.999x    size=    1544kB time=00:01:34.69 bitrate= 133.6kbits/s speed=0.999x    size=    1552kB time=00:01:35.19 bitrate= 133.6kbits/s speed=0.999x    size=    1560kB time=00:01:35.71 bitrate= 133.5kbits/s speed=   1x    size=    1568kB time=00:01:36.21 bitrate= 133.5kbits/s speed=0.999x    size=    1576kB time=00:01:36.70 bitrate= 133.5kbits/s speed=0.999x    size=    1584kB time=00:01:37.20 bitrate= 133.5kbits/s speed=0.999x    size=    1592kB time=00:01:37.72 bitrate= 133.4kbits/s speed=0.999x    size=    1600kB time=00:01:38.22 bitrate= 133.4kbits/s speed=0.999x    size=    1608kB time=00:01:38.72 bitrate= 133.4kbits/s speed=0.999x    size=    1616kB time=00:01:39.24 bitrate= 133.4kbits/s speed=0.999x    size=    1624kB time=00:01:39.73 bitrate= 133.4kbits/s speed=0.999x    size=    1636kB time=00:01:40.23 bitrate= 133.7kbits/s speed=0.999x    size=    1644kB time=00:01:40.73 bitrate= 133.7kbits/s speed=0.999x    size=    1652kB time=00:01:41.25 bitrate= 133.7kbits/s speed=0.999x    size=    1660kB time=00:01:41.75 bitrate= 133.6kbits/s speed=0.999x    size=    1668kB time=00:01:42.24 bitrate= 133.6kbits/s speed=0.999x    size=    1676kB time=00:01:42.77 bitrate= 133.6kbits/s speed=   1x    size=    1684kB time=00:01:43.26 bitrate= 133.6kbits/s speed=0.999x    size=    1692kB time=00:01:43.76 bitrate= 133.6kbits/s speed=0.999x    size=    1700kB time=00:01:44.28 bitrate= 133.5kbits/s speed=   1x    size=    1708kB time=00:01:44.78 bitrate= 133.5kbits/s speed=0.999x    size=    1716kB time=00:01:45.27 bitrate= 133.5kbits/s speed=0.999x    size=    1724kB time=00:01:45.80 bitrate= 133.5kbits/s speed=   1x    size=    1732kB time=00:01:46.29 bitrate= 133.5kbits/s speed=   1x    size=    1740kB time=00:01:46.79 bitrate= 133.5kbits/s speed=0.999x    size=    1748kB time=00:01:47.28 bitrate= 133.5kbits/s speed=0.999x    size=    1756kB time=00:01:47.81 bitrate= 133.4kbits/s speed=   1x    size=    1764kB time=00:01:48.30 bitrate= 133.4kbits/s speed=   1x    size=    1772kB time=00:01:48.80 bitrate= 133.4kbits/s speed=   1x    size=    1780kB time=00:01:49.30 bitrate= 133.4kbits/s speed=0.999x    size=    1788kB time=00:01:49.79 bitrate= 133.4kbits/s speed=0.999x    size=    1800kB time=00:01:50.31 bitrate= 133.7kbits/s speed=   1x    size=    1808kB time=00:01:50.81 bitrate= 133.7kbits/s speed=0.999x    size=    1816kB time=00:01:51.33 bitrate= 133.6kbits/s speed=   1x    size=    1824kB time=00:01:51.83 bitrate= 133.6kbits/s speed=   1x    size=    1832kB time=00:01:52.33 bitrate= 133.6kbits/s speed=   1x    size=    1840kB time=00:01:52.82 bitrate= 133.6kbits/s speed=0.999x    size=    1848kB time=00:01:53.32 bitrate= 133.6kbits/s speed=0.999x    size=    1856kB time=00:01:53.82 bitrate= 133.6kbits/s speed=0.999x    size=    1864kB time=00:01:54.34 bitrate= 133.5kbits/s speed=   1x    Error writing trailer of http://192.168.1.73:8090/feed1.ffm: Broken pipesize=    1876kB time=00:01:54.89 bitrate= 133.8kbits/s speed=   1x    
video:0kB audio:1796kB subtitle:0kB other streams:0kB global headers:0kB muxing overhead: 4.482862%
Exiting normally, received signal 15.
